<svg width="1024" height="1024" viewBox="0 0 1024 1024" fill="none" xmlns="http://www.w3.org/2000/svg">
  <defs>
    <linearGradient id="bg4" x1="100" y1="100" x2="920" y2="920" gradientUnits="userSpaceOnUse">
      <stop stop-color="#FF7F50"/>
      <stop offset="1" stop-color="#C94F7C"/>
    </linearGradient>
  </defs>
  <rect width="1024" height="1024" rx="232" fill="url(#bg4)"/>
  <rect x="232" y="232" width="560" height="560" rx="108" fill="#FFF5F2" fill-opacity="0.95"/>
  <path d="M372 232V792" stroke="#F1C0B4" stroke-width="18"/>
  <path d="M512 232V792" stroke="#F1C0B4" stroke-width="18"/>
  <path d="M652 232V792" stroke="#F1C0B4" stroke-width="18"/>
  <path d="M232 372H792" stroke="#F1C0B4" stroke-width="18"/>
  <path d="M232 512H792" stroke="#F1C0B4" stroke-width="18"/>
  <path d="M232 652H792" stroke="#F1C0B4" stroke-width="18"/>
  <path d="M512 316C425 316 362 379 362 466C362 580 493 677 504 685C508 688 516 688 520 685C531 677 662 580 662 466C662 379 599 316 512 316Z" fill="#1E4D63"/>
  <circle cx="512" cy="466" r="92" fill="#FFF5F2"/>
  <path d="M452 466H572" stroke="#1E4D63" stroke-width="28" stroke-linecap="round"/>
  <path d="M512 406V526" stroke="#1E4D63" stroke-width="28" stroke-linecap="round"/>
  <path d="M716 700C716 741 683 774 642 774C601 774 568 741 568 700C568 659 601 626 642 626C683 626 716 659 716 700Z" fill="#FF7F50"/>
  <path d="M612 700H672" stroke="#FFF5F2" stroke-width="18" stroke-linecap="round"/>
  <path d="M642 670V730" stroke="#FFF5F2" stroke-width="18" stroke-linecap="round"/>
</svg>
